<?xml version="1.0" encoding="UTF-8" standalone="no"?>
<!DOCTYPE svg PUBLIC "-//W3C//DTD SVG 1.1//EN" "http://www.w3.org/Graphics/SVG/1.1/DTD/svg11.dtd">
<svg width="100%" height="100%" viewBox="0 0 200 200" version="1.1" xmlns="http://www.w3.org/2000/svg" xmlns:xlink="http://www.w3.org/1999/xlink" xml:space="preserve" xmlns:serif="http://www.serif.com/" style="fill-rule:evenodd;clip-rule:evenodd;stroke-linejoin:round;stroke-miterlimit:2;">
    <g transform="matrix(1,0,0,1,-63,-273)">
        <g transform="matrix(0.362122,0.209071,-0.209071,0.362122,94.8105,228.345)">
            <ellipse cx="264.993" cy="319.385" rx="52.916" ry="65.701" style="fill:rgb(38,38,38);"/>
        </g>
        <g transform="matrix(0.362122,0.209071,-0.209071,0.362122,169.893,228.345)">
            <ellipse cx="264.993" cy="319.385" rx="52.916" ry="65.701" style="fill:rgb(38,38,38);"/>
        </g>
        <g transform="matrix(0.239517,0.138285,-0.138285,0.239517,104.692,286.261)">
            <ellipse cx="264.993" cy="319.385" rx="52.916" ry="65.701" style="fill:white;"/>
        </g>
        <g transform="matrix(0.239517,0.138285,-0.138285,0.239517,179.774,286.261)">
            <ellipse cx="264.993" cy="319.385" rx="52.916" ry="65.701" style="fill:white;"/>
        </g>
        <g transform="matrix(-0.418143,0,0,0.418143,309.883,265.855)">
            <path d="M501.545,345.804L544.002,345.804C554.29,345.804 564.157,341.717 571.432,334.442C578.707,327.167 582.794,317.3 582.794,307.012L582.794,307.011C582.794,279.586 571.899,253.283 552.507,233.891C533.114,214.498 506.812,203.603 479.386,203.603C472.968,203.603 477.941,188.161 486.347,173.602C494.402,159.649 489.622,141.808 475.669,133.752C475.669,133.752 475.668,133.752 475.668,133.752C402.894,91.735 309.838,116.67 267.822,189.444C262.773,198.188 259.647,203.603 259.647,203.603L241.519,203.603C209.421,203.603 178.638,216.354 155.942,239.05C133.245,261.747 120.494,292.53 120.494,324.628C120.494,324.629 120.494,324.629 120.494,324.63C120.494,330.245 122.725,335.631 126.696,339.602C130.667,343.573 136.053,345.804 141.668,345.804L216.789,345.804C198.643,313.408 204.838,275.255 230.845,260.24C257.136,245.061 293.782,259.239 312.628,291.882C322.875,309.63 325.764,329.206 321.984,345.804L396.35,345.804C378.204,313.408 384.399,275.255 410.406,260.24C436.697,245.061 473.343,259.239 492.19,291.882C502.436,309.63 505.325,329.206 501.545,345.804Z" style="fill:rgb(39,161,255);"/>
        </g>
        <g transform="matrix(-0.297986,0,0,0.297986,262.673,290.775)">
            <path d="M359.544,193.044L265.743,193.044L267.822,189.444C297.031,138.851 350.909,111.38 405.479,113.483L359.544,193.044Z" style="fill:white;"/>
        </g>
        <g transform="matrix(-0.297986,0,0,0.297986,262.673,290.775)">
            <path d="M415.71,114.227C436.236,116.36 456.645,122.768 475.668,133.752C475.668,133.752 475.669,133.752 475.669,133.752C489.622,141.808 494.402,159.649 486.347,173.602C482.39,180.455 479.194,187.503 477.589,193.044L370.205,193.044L415.71,114.227Z" style="fill:white;"/>
        </g>
    </g>
</svg>
